{"title":"Transporter 3[2008]ENG[BRRip]Xvid-{RedDragon}","uid":7192488,"size":788131435,"categoryP":"video","categoryS":"movies","magnet":"?xt=urn:btih:7d0bb7750f6008238cfd1f917c2dce832df11f12&amp;dn=Transporter+3%5B2008%5DENG%5BBRRip%5DXvid-%7BRedDragon%7D&amp;tr=udp%3A%2F%2Ftracker.openbittorrent.com%3A80&amp;tr=udp%3A%2F%2Fopen.demonii.com%3A1337&amp;tr=udp%3A%2F%2Ftracker.coppersurfer.tk%3A6969&amp;tr=udp%3A%2F%2Fexodus.desync.com%3A6969","seeders":0,"leechers":0,"uploader":"RedDr4gon","files":12,"time":1334675552,"description":"\nGeneral\n\nComplete name                    : Transporter 3[2008]ENG[BRRip]Xvid-{RedDragon}.mkv\nFormat                           : Matroska\nFile size                        : 752 MiB\nDuration                         : 1h 38mn\nOverall bit rate                 : 1 070 Kbps\nWriting application              : HandBrake 0.9.5\nWriting library                  : libmkv 0.6.4.1\n\n\nVideo\n\nID                               : 1\nFormat                           : MPEG-4 Visual\nFormat profile                   : Simple@L1\nFormat settings, BVOP            : No\nFormat settings, QPel            : No\nFormat settings, GMC             : No warppoints\nFormat settings, Matrix          : Default (H.263)\nCodec ID                         : V_MPEG4/ISO/ASP\nCodec ID/Info                    : Advanced Simple Profile\nDuration                         : 1h 38mn\nBit rate                         : 825 Kbps\nWidth                            : 640 pixels\nHeight                           : 272 pixels\nDisplay aspect ratio             : 2.35:1\nFrame rate                       : 29.970 fps\nColor space                      : YUV\nChroma subsampling               : 4:2:0\nBit depth                        : 8 bits\nScan type                        : Progressive\nBits/(Pixel*Frame)               : 0.158\nStream size                      : 579 MiB (77%)\nWriting library                  : Lavc52.94.3\n\n\nAudio\n\nID                               : 2\nFormat                           : AC-3\nFormat/Info                      : Audio Coding 3\nMode extension                   : CM (complete main)\nCodec ID                         : A_AC3\nDuration                         : 1h 38mn\nBit rate mode                    : Constant\nBit rate                         : 224 Kbps\nChannel(s)                       : 2 channels\nChannel positions                : Front: L R\nSampling rate                    : 48.0 KHz\nBit depth                        : 16 bits\nStream size                      : 157 MiB (21%)\n\n","torrent":{"xt":"urn:btih:7d0bb7750f6008238cfd1f917c2dce832df11f12","amp;dn":"Transporter+3%5B2008%5DENG%5BBRRip%5DXvid-%7BRedDragon%7D","amp;tr":["udp%3A%2F%2Ftracker.openbittorrent.com%3A80","udp%3A%2F%2Fopen.demonii.com%3A1337","udp%3A%2F%2Ftracker.coppersurfer.tk%3A6969","udp%3A%2F%2Fexodus.desync.com%3A6969"],"infoHash":"7d0bb7750f6008238cfd1f917c2dce832df11f12","infoHashBuffer":{"type":"Buffer","data":[125,11,183,117,15,96,8,35,140,253,31,145,124,45,206,131,45,241,31,18]},"announce":[],"urlList":[]}}